<svg version="1" xmlns="http://www.w3.org/2000/svg" width="498.667" height="498.667" viewBox="0 0 374.000000 374.000000"><path d="M0 187v187h374V0H0v187zM263.6 49.2L342 94.5v183.1l-78.6 45.3-78.6 45.4-3.3-1.9c-1.8-1-37.3-21.5-78.9-45.4l-75.5-43.5V186L27 94.5l78.3-45.2c43-24.8 78.6-45.2 79-45.2.5-.1 36.1 20.3 79.3 45.1z"/><path d="M107.3 51.8L30 96.5l.1 90v90l75.5 43.5c41.5 23.9 76.5 43.9 77.8 44.4 2.1.8 12.6-5 79.5-43.5l77-44.4.1-90v-90l-20.3-11.7c-11.1-6.4-46-26.5-77.5-44.7-31.5-18.2-57.4-33.1-57.5-33-.1 0-35 20.2-77.4 44.7zm151.4 7.4l73.3 42.3-.1 85v85l-73.4 42.3-73.5 42.3-73.2-42.3-73.3-42.3-.2-85-.3-85 73.3-42.2C151.5 36 184.7 17 184.9 17c.3 0 33.5 19 73.8 42.2z"/><path d="M120 74.3l-64.5 37.2v149.9l64.8 37.4 64.8 37.4 64.7-37.4 64.7-37.4.2-75 .2-74.9-63.7-36.7c-35-20.2-64.4-36.9-65.2-37.2-.9-.4-28.4 15-66 36.7zm160.8 34.5l13.2 12.7v41l-10 10-10 10 8.5 8.5 8.5 8.5v43.9l-5.7 5.8-5.7 5.8H266v-27.5l-9.7-9.7-9.8-9.8H180v17.6l41.1 25.4 41.1 25.5-8.6.3-8.5.3-7.8-4.9-7.8-4.9-34.5-.7-34.5-.7-5.5 5.5-5.4 5.6h-45.2l-13.2-13.3L78 250.3v-74.8l23.2-23.2 23.3-23.3H234v3.7c0 3.5-1 4.7-12.2 16L209.5 161h-70l-15.7 15.7-15.8 15.8v36.9l6.2 6.3c6.1 6.2 6.3 6.3 11.6 6.3h5.5l8.8-8.7 8.9-8.7v-39.1l8.5-8.5 8.5-8.5h95.9l5.6-5.5 5.5-5.4v-23.2l-7.3-7.2-7.2-7.2H134.4l-5.7-5.8-5.7-5.8V96h72.3l72.2.1 13.3 12.7z"/></svg>